<svg width="20" height="20" viewBox="0 0 20 20" fill="none" xmlns="http://www.w3.org/2000/svg">
<g id="mingcute:left-fill" clip-path="url(#clip0_54_43)">
<g id="Group">
<path id="Vector" fill-rule="evenodd" clip-rule="evenodd" d="M6.61654 10.8833C6.38246 10.6489 6.25098 10.3312 6.25098 9.99998C6.25098 9.66873 6.38246 9.35102 6.61654 9.11664L11.3299 4.40164C11.5644 4.16726 11.8824 4.03563 12.2139 4.03571C12.3781 4.03574 12.5406 4.06812 12.6923 4.13098C12.8439 4.19384 12.9817 4.28595 13.0978 4.40206C13.2138 4.51817 13.3059 4.656 13.3687 4.80769C13.4315 4.95937 13.4638 5.12194 13.4637 5.28611C13.4637 5.45027 13.4313 5.61282 13.3685 5.76448C13.3056 5.91613 13.2135 6.05392 13.0974 6.16998L9.26821 9.99998L13.0982 13.83C13.2177 13.9452 13.3129 14.0831 13.3785 14.2356C13.4441 14.3881 13.4787 14.5521 13.4802 14.718C13.4817 14.884 13.4502 15.0486 13.3874 15.2023C13.3246 15.3559 13.2318 15.4955 13.1145 15.613C12.9972 15.7304 12.8577 15.8233 12.7041 15.8862C12.5505 15.9491 12.3859 15.9808 12.22 15.9794C12.054 15.9781 11.89 15.9437 11.7374 15.8782C11.5849 15.8128 11.4469 15.7176 11.3315 15.5983L6.61488 10.8833H6.61654Z" fill="#DC143C"/>
</g>
</g>
<defs>
<clipPath id="clip0_54_43">
<rect width="20" height="20" fill="white"/>
</clipPath>
</defs>
</svg>
