<svg width="20" height="20" viewBox="0 0 20 20" fill="none" xmlns="http://www.w3.org/2000/svg">
<g clip-path="url(#clip0_98_100)">
<path fill-rule="evenodd" clip-rule="evenodd" d="M13.3833 8.11669C13.6174 8.35106 13.7489 8.66877 13.7489 9.00002C13.7489 9.33127 13.6174 9.64898 13.3833 9.88336L8.67 14.5984C8.43551 14.8327 8.11751 14.9644 7.78596 14.9643C7.62179 14.9643 7.45924 14.9319 7.30758 14.869C7.15593 14.8062 7.01814 14.714 6.90208 14.5979C6.78603 14.4818 6.69398 14.344 6.63119 14.1923C6.5684 14.0406 6.53611 13.8781 6.53615 13.7139C6.53618 13.5497 6.56856 13.3872 6.63142 13.2355C6.69428 13.0839 6.78639 12.9461 6.9025 12.83L10.7317 9.00002L6.90167 5.17002C6.78223 5.05477 6.68694 4.91688 6.62135 4.76441C6.55577 4.61193 6.52121 4.44793 6.51969 4.28195C6.51817 4.11598 6.54972 3.95137 6.6125 3.79772C6.67528 3.64407 6.76803 3.50446 6.88534 3.38704C7.00265 3.26962 7.14217 3.17674 7.29576 3.11381C7.44935 3.05089 7.61394 3.01919 7.77991 3.02055C7.94588 3.02191 8.10992 3.05632 8.26246 3.12176C8.415 3.18719 8.55297 3.28236 8.66834 3.40169L13.385 8.11669L13.3833 8.11669Z" fill="#DC143C"/>
</g>
<defs>
<clipPath id="clip0_98_100">
<rect width="20" height="20" fill="white" transform="translate(20 20) rotate(-180)"/>
</clipPath>
</defs>
</svg>
