<svg width="20" height="20" viewBox="0 0 20 20" fill="none" xmlns="http://www.w3.org/2000/svg">
<g clip-path="url(#clip0_263_15)">
<path fill-rule="evenodd" clip-rule="evenodd" d="M6.61679 10.8833C6.3827 10.6489 6.25122 10.3312 6.25122 9.99992C6.25122 9.66867 6.3827 9.35096 6.61679 9.11658L11.3301 4.40158C11.5646 4.1672 11.8826 4.03557 12.2142 4.03564C12.3783 4.03568 12.5409 4.06806 12.6925 4.13092C12.8442 4.19378 12.982 4.28589 13.098 4.402C13.2141 4.51811 13.3061 4.65594 13.3689 4.80763C13.4317 4.95931 13.464 5.12188 13.464 5.28605C13.4639 5.45021 13.4316 5.61276 13.3687 5.76442C13.3058 5.91607 13.2137 6.05386 13.0976 6.16992L9.26845 9.99992L13.0985 13.8299C13.2179 13.9452 13.3132 14.0831 13.3788 14.2355C13.4444 14.388 13.4789 14.552 13.4804 14.718C13.4819 14.884 13.4504 15.0486 13.3876 15.2022C13.3248 15.3559 13.2321 15.4955 13.1148 15.6129C12.9975 15.7303 12.858 15.8232 12.7044 15.8861C12.5508 15.949 12.3862 15.9808 12.2202 15.9794C12.0542 15.978 11.8902 15.9436 11.7377 15.8782C11.5851 15.8127 11.4472 15.7176 11.3318 15.5983L6.61512 10.8833H6.61679Z" fill="#DC143C"/>
</g>
<defs>
<clipPath id="clip0_263_15">
<rect width="20" height="20" fill="white"/>
</clipPath>
</defs>
</svg>
