<svg width="18" height="18" viewBox="0 0 18 18" fill="none" xmlns="http://www.w3.org/2000/svg">
<path d="M1.33333 15.3333C1.33333 14.2724 1.75476 13.255 2.5049 12.5049C3.25505 11.7547 4.27246 11.3333 5.33333 11.3333H13.3333C14.3942 11.3333 15.4116 11.7547 16.1618 12.5049C16.9119 13.255 17.3333 14.2724 17.3333 15.3333C17.3333 15.8637 17.1226 16.3725 16.7475 16.7475C16.3725 17.1226 15.8638 17.3333 15.3333 17.3333H3.33333C2.8029 17.3333 2.29419 17.1226 1.91911 16.7475C1.54404 16.3725 1.33333 15.8637 1.33333 15.3333Z" stroke="#DC143C" stroke-width="1.16667" stroke-linejoin="round"/>
<path d="M9.33333 7.33331C10.9902 7.33331 12.3333 5.99017 12.3333 4.33331C12.3333 2.67646 10.9902 1.33331 9.33333 1.33331C7.67647 1.33331 6.33333 2.67646 6.33333 4.33331C6.33333 5.99017 7.67647 7.33331 9.33333 7.33331Z" stroke="#DC143C" stroke-width="1.16667"/>
</svg>
