<svg width="20" height="20" viewBox="0 0 20 20" fill="none" xmlns="http://www.w3.org/2000/svg">
<path d="M7.14569 14.1604H16.9143C17.2403 14.1604 17.525 13.8926 17.525 13.5326C17.525 13.1726 17.2403 12.9047 16.9143 12.9047H7.28783C6.81069 12.9047 6.51783 12.5697 6.44248 12.0593L6.30855 11.1804H16.9307C18.1528 11.1804 18.7807 10.4268 18.9564 9.23006L19.626 4.80184C19.6438 4.69669 19.655 4.59053 19.6596 4.48398C19.6596 4.0822 19.3582 3.80577 18.8978 3.80577H5.2289L5.06962 2.74291C4.98605 2.09827 4.75176 1.77148 3.89819 1.77148H0.959618C0.624975 1.77148 0.340332 2.06506 0.340332 2.40006C0.340332 2.74291 0.624975 3.03613 0.959975 3.03613H3.7889L5.12819 12.2268C5.30426 13.4154 5.93176 14.1604 7.14569 14.1604ZM18.2364 5.0697L17.6428 9.07934C17.5757 9.59827 17.2996 9.91648 16.8057 9.91648L6.12498 9.9247L5.41319 5.0697H18.2364ZM7.80712 18.2286C7.98561 18.2301 8.16261 18.196 8.32781 18.1284C8.493 18.0608 8.64308 17.961 8.76929 17.8347C8.89551 17.7085 8.99534 17.5584 9.06297 17.3932C9.1306 17.2281 9.16467 17.0511 9.16319 16.8726C9.16395 16.6943 9.12939 16.5176 9.0615 16.3527C8.99362 16.1878 8.89376 16.0381 8.76769 15.912C8.64162 15.7859 8.49183 15.6861 8.32696 15.6182C8.16209 15.5503 7.98541 15.5157 7.80712 15.5165C7.04569 15.5165 6.44283 16.1193 6.44283 16.8726C6.44283 17.6343 7.04569 18.2286 7.80712 18.2286ZM15.6335 18.2286C16.3953 18.2286 16.9978 17.6343 16.9978 16.8726C16.9978 16.119 16.3953 15.5165 15.6335 15.5165C14.8803 15.5165 14.2693 16.1193 14.2693 16.8726C14.2693 17.6343 14.8803 18.2286 15.6335 18.2286Z" fill="#DC143C"/>
</svg>
