<svg width="16" height="19" viewBox="0 0 16 19" fill="none" xmlns="http://www.w3.org/2000/svg">
<path d="M14.2143 8C14.4643 8 14.6964 8.04464 14.9107 8.13393C15.125 8.22321 15.3155 8.34821 15.4821 8.50893C15.6488 8.66964 15.7738 8.85714 15.8571 9.07143C15.9405 9.28571 15.9881 9.51786 16 9.76786C16 10 15.9554 10.2262 15.8661 10.4464C15.7768 10.6667 15.6488 10.8601 15.4821 11.0268L9.08036 17.4464L5.71429 18.2857L6.55357 14.9196L12.9554 8.50893C13.122 8.34226 13.3155 8.21726 13.5357 8.13393C13.756 8.05059 13.9821 8.00595 14.2143 8ZM14.6696 10.2232C14.7946 10.0982 14.8571 9.94643 14.8571 9.76786C14.8571 9.58333 14.7976 9.43452 14.6786 9.32143C14.5595 9.20833 14.4048 9.14881 14.2143 9.14286C14.131 9.14286 14.0506 9.15476 13.9732 9.17857C13.8958 9.20238 13.8274 9.24702 13.7679 9.3125L7.58929 15.5089L7.28571 16.7143L8.49107 16.4107L14.6696 10.2232ZM3.42857 8H2.28571V6.85714H3.42857V8ZM11.4286 8H4.57143V6.85714H11.4286V8ZM2.28571 10.2857H3.42857V11.4286H2.28571V10.2857ZM3.42857 4.57143H2.28571V3.42857H3.42857V4.57143ZM11.4286 4.57143H4.57143V3.42857H11.4286V4.57143ZM1.14286 14.8571H5.09821L4.8125 16H0V0H13.7143V6.63393C13.3155 6.69345 12.9345 6.8244 12.5714 7.02678V1.14286H1.14286V14.8571ZM4.57143 10.2857H9.16071L8.01786 11.4286H4.57143V10.2857Z" fill="#DC143C"/>
</svg>
